<svg xmlns="http://www.w3.org/2000/svg" xmlns:xlink="http://www.w3.org/1999/xlink" width="26.445" height="26" viewBox="0 0 26.445 26">
		<g id="Group_4439" data-name="Group 4439" transform="translate(0 0)">
		  <g id="Group_4266" data-name="Group 4266" transform="translate(0 0)">
			<path id="Path_6177" data-name="Path 6177" d="M13.127,1.109A12.376,12.376,0,1,0,25.5,13.485,12.377,12.377,0,0,0,13.127,1.109" transform="translate(-0.247 -0.364)" fill="#fff"></path>
			<path id="Path_6178" data-name="Path 6178" d="M12.88.359A12.879,12.879,0,1,0,25.759,13.238,12.894,12.894,0,0,0,12.88.359m0,24.752A11.873,11.873,0,1,1,24.753,13.238,11.886,11.886,0,0,1,12.88,25.111" transform="translate(0 -0.118)" fill="#0c1931"></path>
			<path id="Path_6179" data-name="Path 6179" d="M14.132,4.167A10.323,10.323,0,1,0,24.454,14.49,10.322,10.322,0,0,0,14.132,4.167" transform="translate(-1.252 -1.37)" fill="#fff"></path>
			<path id="Path_6180" data-name="Path 6180" d="M13.886,3.417A10.826,10.826,0,1,0,24.711,14.243,10.838,10.838,0,0,0,13.886,3.417m0,20.646a9.819,9.819,0,1,1,9.818-9.82,9.831,9.831,0,0,1-9.818,9.82" transform="translate(-1.006 -1.123)" fill="#0c1931"></path>
			<rect id="Rectangle_8020" data-name="Rectangle 8020" width="1.518" height="7.171" transform="translate(12.23 6.21)" fill="#0c1931"></rect>
			<rect id="Rectangle_8021" data-name="Rectangle 8021" width="5.357" height="1.269" transform="translate(9.069 16.44) rotate(-45)" fill="#0c1931"></rect>
			<path id="Path_6183" data-name="Path 6183" d="M16.978,19.155a1.591,1.591,0,1,1,1.591,1.591,1.591,1.591,0,0,1-1.591-1.591" transform="translate(-5.581 -5.774)" fill="#0c1931"></path>
		  </g>
		</g>
	  </svg>